<mxfile host="app.diagrams.net" modified="2024-05-03T15:38:18.243Z" agent="Mozilla/5.0 (Windows NT 10.0; Win64; x64) AppleWebKit/537.36 (KHTML, like Gecko) Chrome/124.0.0.0 Safari/537.36" etag="Mp1SBLBCjAtxyfen67gu" version="24.3.1" type="device">
  <diagram name="Page-1" id="igKZeYeEOgdflcOt9eH0">
    <mxGraphModel dx="2600" dy="2188" grid="1" gridSize="10" guides="1" tooltips="1" connect="1" arrows="1" fold="1" page="1" pageScale="1" pageWidth="850" pageHeight="1100" math="0" shadow="0">
      <root>
        <mxCell id="0" />
        <mxCell id="1" parent="0" />
        <mxCell id="VOUzY9_dRoBkDUYtGek2-1" value="Event" style="swimlane;childLayout=stackLayout;horizontal=1;startSize=50;horizontalStack=0;rounded=1;fontSize=14;fontStyle=0;strokeWidth=2;resizeParent=0;resizeLast=1;shadow=0;dashed=0;align=center;arcSize=4;whiteSpace=wrap;html=1;fillColor=#f8cecc;strokeColor=#b85450;" parent="1" vertex="1">
          <mxGeometry x="-20" y="250" width="190" height="130" as="geometry" />
        </mxCell>
        <mxCell id="VOUzY9_dRoBkDUYtGek2-2" value="+date[R]&lt;div&gt;+type[R]&lt;/div&gt;&lt;div&gt;+guests_count[R]&lt;/div&gt;&lt;div&gt;+description[R]&lt;/div&gt;" style="align=left;strokeColor=none;fillColor=none;spacingLeft=4;fontSize=12;verticalAlign=top;resizable=0;rotatable=0;part=1;html=1;" parent="VOUzY9_dRoBkDUYtGek2-1" vertex="1">
          <mxGeometry y="50" width="190" height="80" as="geometry" />
        </mxCell>
        <mxCell id="ZchKuzCcnekr-gHOlTx0-3" style="edgeStyle=orthogonalEdgeStyle;rounded=0;orthogonalLoop=1;jettySize=auto;html=1;exitX=0.75;exitY=0;exitDx=0;exitDy=0;entryX=0;entryY=0.25;entryDx=0;entryDy=0;endArrow=ERoneToMany;endFill=0;startArrow=ERmandOne;startFill=0;" parent="1" source="VOUzY9_dRoBkDUYtGek2-3" target="ZchKuzCcnekr-gHOlTx0-2" edge="1">
          <mxGeometry relative="1" as="geometry" />
        </mxCell>
        <mxCell id="VOUzY9_dRoBkDUYtGek2-3" value="Location" style="swimlane;childLayout=stackLayout;horizontal=1;startSize=50;horizontalStack=0;rounded=1;fontSize=14;fontStyle=0;strokeWidth=2;resizeParent=0;resizeLast=1;shadow=0;dashed=0;align=center;arcSize=4;whiteSpace=wrap;html=1;fillColor=#ffe6cc;strokeColor=#d79b00;" parent="1" vertex="1">
          <mxGeometry x="-20" y="-40" width="220" height="120" as="geometry" />
        </mxCell>
        <mxCell id="VOUzY9_dRoBkDUYtGek2-4" value="+city name[R]&lt;div&gt;&lt;div&gt;+type[R]&lt;/div&gt;&lt;div&gt;+max occupancy[R]&lt;/div&gt;&lt;/div&gt;" style="align=left;strokeColor=none;fillColor=none;spacingLeft=4;fontSize=12;verticalAlign=top;resizable=0;rotatable=0;part=1;html=1;" parent="VOUzY9_dRoBkDUYtGek2-3" vertex="1">
          <mxGeometry y="50" width="220" height="70" as="geometry" />
        </mxCell>
        <mxCell id="VOUzY9_dRoBkDUYtGek2-5" value="Task" style="swimlane;childLayout=stackLayout;horizontal=1;startSize=50;horizontalStack=0;rounded=1;fontSize=14;fontStyle=0;strokeWidth=2;resizeParent=0;resizeLast=1;shadow=0;dashed=0;align=center;arcSize=4;whiteSpace=wrap;html=1;fillColor=#ffe6cc;strokeColor=#d79b00;" parent="1" vertex="1">
          <mxGeometry x="1220" y="540" width="100" height="90" as="geometry" />
        </mxCell>
        <mxCell id="VOUzY9_dRoBkDUYtGek2-6" value="+task[RU]" style="align=left;strokeColor=none;fillColor=none;spacingLeft=4;fontSize=12;verticalAlign=top;resizable=0;rotatable=0;part=1;html=1;" parent="VOUzY9_dRoBkDUYtGek2-5" vertex="1">
          <mxGeometry y="50" width="100" height="40" as="geometry" />
        </mxCell>
        <mxCell id="ZchKuzCcnekr-gHOlTx0-18" style="edgeStyle=orthogonalEdgeStyle;rounded=0;orthogonalLoop=1;jettySize=auto;html=1;exitX=0.75;exitY=1;exitDx=0;exitDy=0;entryX=0;entryY=0.25;entryDx=0;entryDy=0;startArrow=ERmandOne;startFill=0;endArrow=ERoneToMany;endFill=0;" parent="1" source="VOUzY9_dRoBkDUYtGek2-7" target="VOUzY9_dRoBkDUYtGek2-16" edge="1">
          <mxGeometry relative="1" as="geometry" />
        </mxCell>
        <mxCell id="ZchKuzCcnekr-gHOlTx0-24" value="holds/help by" style="edgeLabel;html=1;align=center;verticalAlign=middle;resizable=0;points=[];" parent="ZchKuzCcnekr-gHOlTx0-18" vertex="1" connectable="0">
          <mxGeometry x="0.1855" y="1" relative="1" as="geometry">
            <mxPoint as="offset" />
          </mxGeometry>
        </mxCell>
        <mxCell id="VOUzY9_dRoBkDUYtGek2-7" value="Client" style="swimlane;childLayout=stackLayout;horizontal=1;startSize=50;horizontalStack=0;rounded=1;fontSize=14;fontStyle=0;strokeWidth=2;resizeParent=0;resizeLast=1;shadow=0;dashed=0;align=center;arcSize=4;whiteSpace=wrap;html=1;fillColor=#dae8fc;strokeColor=#6c8ebf;" parent="1" vertex="1">
          <mxGeometry x="430" y="200" width="220" height="140" as="geometry" />
        </mxCell>
        <mxCell id="VOUzY9_dRoBkDUYtGek2-8" value="+name[RU]&lt;div&gt;+type[R]&lt;/div&gt;&lt;div&gt;+contact person[R]&lt;/div&gt;&lt;div&gt;+email[RU]&lt;/div&gt;&lt;div&gt;+contact number[RU]&lt;/div&gt;" style="align=left;spacingLeft=4;fontSize=12;verticalAlign=top;resizable=0;rotatable=0;part=1;html=1;" parent="VOUzY9_dRoBkDUYtGek2-7" vertex="1">
          <mxGeometry y="50" width="220" height="90" as="geometry" />
        </mxCell>
        <mxCell id="VOUzY9_dRoBkDUYtGek2-11" value="Vendor" style="swimlane;childLayout=stackLayout;horizontal=1;startSize=50;horizontalStack=0;rounded=1;fontSize=14;fontStyle=0;strokeWidth=2;resizeParent=0;resizeLast=1;shadow=0;dashed=0;align=center;arcSize=4;whiteSpace=wrap;html=1;fillColor=#fff2cc;strokeColor=#d6b656;" parent="1" vertex="1">
          <mxGeometry x="460" y="-256" width="230" height="140" as="geometry" />
        </mxCell>
        <mxCell id="VOUzY9_dRoBkDUYtGek2-12" value="+name[RU]&lt;div&gt;+type[R]&lt;/div&gt;&lt;div&gt;+contact_person[R]&lt;/div&gt;&lt;div&gt;+email[RU]&lt;/div&gt;&lt;div&gt;+contact_number[RU]&lt;/div&gt;" style="align=left;strokeColor=none;fillColor=none;spacingLeft=4;fontSize=12;verticalAlign=top;resizable=0;rotatable=0;part=1;html=1;" parent="VOUzY9_dRoBkDUYtGek2-11" vertex="1">
          <mxGeometry y="50" width="230" height="90" as="geometry" />
        </mxCell>
        <mxCell id="VOUzY9_dRoBkDUYtGek2-13" value="Staff" style="swimlane;childLayout=stackLayout;horizontal=1;startSize=50;horizontalStack=0;rounded=1;fontSize=14;fontStyle=0;strokeWidth=2;resizeParent=0;resizeLast=1;shadow=0;dashed=0;align=center;arcSize=4;whiteSpace=wrap;html=1;fillColor=#d5e8d4;strokeColor=#82b366;" parent="1" vertex="1">
          <mxGeometry x="650" y="515" width="230" height="140" as="geometry" />
        </mxCell>
        <mxCell id="VOUzY9_dRoBkDUYtGek2-14" value="+name[R]&lt;div&gt;+position[R]&lt;/div&gt;&lt;div&gt;+employee email[RU]&lt;/div&gt;&lt;div&gt;+employee contact number[R]&lt;/div&gt;" style="align=left;strokeColor=none;fillColor=none;spacingLeft=4;fontSize=12;verticalAlign=top;resizable=0;rotatable=0;part=1;html=1;" parent="VOUzY9_dRoBkDUYtGek2-13" vertex="1">
          <mxGeometry y="50" width="230" height="90" as="geometry" />
        </mxCell>
        <mxCell id="VOUzY9_dRoBkDUYtGek2-15" value="Payment" style="swimlane;childLayout=stackLayout;horizontal=1;startSize=50;horizontalStack=0;rounded=1;fontSize=14;fontStyle=0;strokeWidth=2;resizeParent=0;resizeLast=1;shadow=0;dashed=0;align=center;arcSize=4;whiteSpace=wrap;html=1;fillColor=#b1ddf0;strokeColor=#10739e;" parent="1" vertex="1">
          <mxGeometry x="820" y="330" width="190" height="110" as="geometry" />
        </mxCell>
        <mxCell id="VOUzY9_dRoBkDUYtGek2-16" value="+amount [R]&lt;div&gt;+date[R]&lt;/div&gt;&lt;div&gt;+method[R]&lt;/div&gt;&lt;div&gt;&lt;br&gt;&lt;/div&gt;" style="align=left;strokeColor=none;fillColor=none;spacingLeft=4;fontSize=12;verticalAlign=top;resizable=0;rotatable=0;part=1;html=1;" parent="VOUzY9_dRoBkDUYtGek2-15" vertex="1">
          <mxGeometry y="50" width="190" height="60" as="geometry" />
        </mxCell>
        <mxCell id="VOUzY9_dRoBkDUYtGek2-17" value="Invoice" style="swimlane;childLayout=stackLayout;horizontal=1;startSize=50;horizontalStack=0;rounded=1;fontSize=14;fontStyle=0;strokeWidth=2;resizeParent=0;resizeLast=1;shadow=0;dashed=0;align=center;arcSize=4;whiteSpace=wrap;html=1;fillColor=#e1d5e7;strokeColor=#9673a6;" parent="1" vertex="1">
          <mxGeometry x="900" y="-28" width="190" height="110" as="geometry" />
        </mxCell>
        <mxCell id="VOUzY9_dRoBkDUYtGek2-18" value="&lt;div&gt;+date issued[R]&lt;/div&gt;&lt;div&gt;+status[R]&lt;/div&gt;" style="align=left;strokeColor=none;fillColor=none;spacingLeft=4;fontSize=12;verticalAlign=top;resizable=0;rotatable=0;part=1;html=1;" parent="VOUzY9_dRoBkDUYtGek2-17" vertex="1">
          <mxGeometry y="50" width="190" height="60" as="geometry" />
        </mxCell>
        <mxCell id="VOUzY9_dRoBkDUYtGek2-19" value="Feedback" style="swimlane;childLayout=stackLayout;horizontal=1;startSize=50;horizontalStack=0;rounded=1;fontSize=14;fontStyle=0;strokeWidth=2;resizeParent=0;resizeLast=1;shadow=0;dashed=0;align=center;arcSize=4;whiteSpace=wrap;html=1;fillColor=#e1d5e7;strokeColor=#9673a6;" parent="1" vertex="1">
          <mxGeometry x="190" y="480" width="230" height="90" as="geometry" />
        </mxCell>
        <mxCell id="VOUzY9_dRoBkDUYtGek2-20" value="+ratings[R]&lt;div&gt;+comments[R]&lt;/div&gt;&lt;div&gt;&lt;br&gt;&lt;/div&gt;" style="align=left;strokeColor=none;fillColor=none;spacingLeft=4;fontSize=12;verticalAlign=top;resizable=0;rotatable=0;part=1;html=1;" parent="VOUzY9_dRoBkDUYtGek2-19" vertex="1">
          <mxGeometry y="50" width="230" height="40" as="geometry" />
        </mxCell>
        <mxCell id="VOUzY9_dRoBkDUYtGek2-24" style="edgeStyle=orthogonalEdgeStyle;rounded=0;orthogonalLoop=1;jettySize=auto;html=1;endArrow=ERoneToMany;endFill=0;startArrow=ERmandOne;startFill=0;" parent="1" source="VOUzY9_dRoBkDUYtGek2-4" target="VOUzY9_dRoBkDUYtGek2-1" edge="1">
          <mxGeometry relative="1" as="geometry">
            <Array as="points">
              <mxPoint x="110" y="310" />
              <mxPoint x="110" y="310" />
            </Array>
          </mxGeometry>
        </mxCell>
        <mxCell id="VOUzY9_dRoBkDUYtGek2-25" value="locates at/&lt;br&gt;holds" style="edgeLabel;html=1;align=center;verticalAlign=middle;resizable=0;points=[];" parent="VOUzY9_dRoBkDUYtGek2-24" vertex="1" connectable="0">
          <mxGeometry x="-0.1962" y="-1" relative="1" as="geometry">
            <mxPoint as="offset" />
          </mxGeometry>
        </mxCell>
        <mxCell id="VOUzY9_dRoBkDUYtGek2-29" style="edgeStyle=orthogonalEdgeStyle;rounded=0;orthogonalLoop=1;jettySize=auto;html=1;entryX=0.563;entryY=0.011;entryDx=0;entryDy=0;entryPerimeter=0;endArrow=ERoneToMany;endFill=0;startArrow=ERmandOne;startFill=0;" parent="1" source="VOUzY9_dRoBkDUYtGek2-8" target="VOUzY9_dRoBkDUYtGek2-19" edge="1">
          <mxGeometry relative="1" as="geometry">
            <Array as="points">
              <mxPoint x="370" y="295" />
              <mxPoint x="370" y="460" />
              <mxPoint x="319" y="460" />
            </Array>
          </mxGeometry>
        </mxCell>
        <mxCell id="VOUzY9_dRoBkDUYtGek2-52" value="provides/ provided by" style="edgeLabel;html=1;align=center;verticalAlign=middle;resizable=0;points=[];" parent="VOUzY9_dRoBkDUYtGek2-29" vertex="1" connectable="0">
          <mxGeometry x="0.1843" y="-1" relative="1" as="geometry">
            <mxPoint as="offset" />
          </mxGeometry>
        </mxCell>
        <mxCell id="VOUzY9_dRoBkDUYtGek2-35" style="edgeStyle=orthogonalEdgeStyle;rounded=0;orthogonalLoop=1;jettySize=auto;html=1;entryX=0;entryY=0.25;entryDx=0;entryDy=0;endArrow=ERoneToMany;endFill=0;startArrow=ERmandOne;startFill=0;" parent="1" source="VOUzY9_dRoBkDUYtGek2-12" target="VOUzY9_dRoBkDUYtGek2-18" edge="1">
          <mxGeometry relative="1" as="geometry" />
        </mxCell>
        <mxCell id="VOUzY9_dRoBkDUYtGek2-54" value="holds/ held by" style="edgeLabel;html=1;align=center;verticalAlign=middle;resizable=0;points=[];" parent="VOUzY9_dRoBkDUYtGek2-35" vertex="1" connectable="0">
          <mxGeometry x="0.0352" y="-2" relative="1" as="geometry">
            <mxPoint as="offset" />
          </mxGeometry>
        </mxCell>
        <mxCell id="VOUzY9_dRoBkDUYtGek2-39" style="edgeStyle=orthogonalEdgeStyle;rounded=0;orthogonalLoop=1;jettySize=auto;html=1;entryX=0.44;entryY=-0.007;entryDx=0;entryDy=0;entryPerimeter=0;endArrow=ERoneToMany;endFill=0;startArrow=ERmandOne;startFill=0;" parent="1" source="VOUzY9_dRoBkDUYtGek2-2" target="VOUzY9_dRoBkDUYtGek2-19" edge="1">
          <mxGeometry relative="1" as="geometry">
            <mxPoint x="370" y="490" as="targetPoint" />
          </mxGeometry>
        </mxCell>
        <mxCell id="VOUzY9_dRoBkDUYtGek2-56" value="receives/ received from&amp;nbsp;" style="edgeLabel;html=1;align=center;verticalAlign=middle;resizable=0;points=[];" parent="VOUzY9_dRoBkDUYtGek2-39" vertex="1" connectable="0">
          <mxGeometry x="-0.2617" relative="1" as="geometry">
            <mxPoint as="offset" />
          </mxGeometry>
        </mxCell>
        <mxCell id="VOUzY9_dRoBkDUYtGek2-40" style="edgeStyle=orthogonalEdgeStyle;rounded=0;orthogonalLoop=1;jettySize=auto;html=1;entryX=1;entryY=0.5;entryDx=0;entryDy=0;startArrow=ERoneToMany;startFill=0;endArrow=ERmandOne;endFill=0;" parent="1" source="VOUzY9_dRoBkDUYtGek2-14" target="VOUzY9_dRoBkDUYtGek2-19" edge="1">
          <mxGeometry relative="1" as="geometry" />
        </mxCell>
        <mxCell id="VOUzY9_dRoBkDUYtGek2-57" value="provides/ provided by" style="edgeLabel;html=1;align=center;verticalAlign=middle;resizable=0;points=[];" parent="VOUzY9_dRoBkDUYtGek2-40" vertex="1" connectable="0">
          <mxGeometry x="-0.0346" y="-3" relative="1" as="geometry">
            <mxPoint as="offset" />
          </mxGeometry>
        </mxCell>
        <mxCell id="VOUzY9_dRoBkDUYtGek2-47" style="edgeStyle=orthogonalEdgeStyle;rounded=0;orthogonalLoop=1;jettySize=auto;html=1;entryX=0;entryY=0.5;entryDx=0;entryDy=0;startArrow=ERmandOne;startFill=0;endArrow=ERoneToMany;endFill=0;" parent="1" source="VOUzY9_dRoBkDUYtGek2-4" target="VOUzY9_dRoBkDUYtGek2-7" edge="1">
          <mxGeometry relative="1" as="geometry" />
        </mxCell>
        <mxCell id="VOUzY9_dRoBkDUYtGek2-49" value="located at/holds" style="edgeLabel;html=1;align=center;verticalAlign=middle;resizable=0;points=[];" parent="VOUzY9_dRoBkDUYtGek2-47" vertex="1" connectable="0">
          <mxGeometry x="0.0075" y="1" relative="1" as="geometry">
            <mxPoint as="offset" />
          </mxGeometry>
        </mxCell>
        <mxCell id="ZchKuzCcnekr-gHOlTx0-1" value="LocationVender" style="swimlane;childLayout=stackLayout;horizontal=1;startSize=50;horizontalStack=0;rounded=1;fontSize=14;fontStyle=0;strokeWidth=2;resizeParent=0;resizeLast=1;shadow=0;dashed=0;align=center;arcSize=4;whiteSpace=wrap;html=1;fillColor=#d5e8d4;strokeColor=#82b366;" parent="1" vertex="1">
          <mxGeometry x="220" y="-240" width="150" height="90" as="geometry" />
        </mxCell>
        <mxCell id="ZchKuzCcnekr-gHOlTx0-2" value="+Attribute1&lt;br&gt;+Attribute2" style="align=left;strokeColor=none;fillColor=none;spacingLeft=4;fontSize=12;verticalAlign=top;resizable=0;rotatable=0;part=1;html=1;" parent="ZchKuzCcnekr-gHOlTx0-1" vertex="1">
          <mxGeometry y="50" width="150" height="40" as="geometry" />
        </mxCell>
        <mxCell id="ZchKuzCcnekr-gHOlTx0-4" style="edgeStyle=orthogonalEdgeStyle;rounded=0;orthogonalLoop=1;jettySize=auto;html=1;exitX=1;exitY=0.75;exitDx=0;exitDy=0;entryX=0;entryY=0.5;entryDx=0;entryDy=0;startArrow=ERoneToMany;startFill=0;endArrow=ERmandOne;endFill=0;" parent="1" source="ZchKuzCcnekr-gHOlTx0-2" target="VOUzY9_dRoBkDUYtGek2-12" edge="1">
          <mxGeometry relative="1" as="geometry" />
        </mxCell>
        <mxCell id="ZchKuzCcnekr-gHOlTx0-5" value="EventStaff" style="swimlane;childLayout=stackLayout;horizontal=1;startSize=50;horizontalStack=0;rounded=1;fontSize=14;fontStyle=0;strokeWidth=2;resizeParent=0;resizeLast=1;shadow=0;dashed=0;align=center;arcSize=4;whiteSpace=wrap;html=1;fillColor=#ffe6cc;strokeColor=#d79b00;" parent="1" vertex="1">
          <mxGeometry x="90" y="610" width="160" height="120" as="geometry" />
        </mxCell>
        <mxCell id="ZchKuzCcnekr-gHOlTx0-6" value="+Attribute1&#xa;+Attribute2&#xa;+Attribute3" style="align=left;strokeColor=none;fillColor=none;spacingLeft=4;fontSize=12;verticalAlign=top;resizable=0;rotatable=0;part=1;html=1;" parent="ZchKuzCcnekr-gHOlTx0-5" vertex="1">
          <mxGeometry y="50" width="160" height="70" as="geometry" />
        </mxCell>
        <mxCell id="ZchKuzCcnekr-gHOlTx0-7" style="edgeStyle=orthogonalEdgeStyle;rounded=0;orthogonalLoop=1;jettySize=auto;html=1;exitX=0.25;exitY=1;exitDx=0;exitDy=0;entryX=0;entryY=0.25;entryDx=0;entryDy=0;startArrow=ERmandOne;startFill=0;endArrow=ERoneToMany;endFill=0;" parent="1" source="VOUzY9_dRoBkDUYtGek2-2" target="ZchKuzCcnekr-gHOlTx0-6" edge="1">
          <mxGeometry relative="1" as="geometry" />
        </mxCell>
        <mxCell id="ZchKuzCcnekr-gHOlTx0-8" style="edgeStyle=orthogonalEdgeStyle;rounded=0;orthogonalLoop=1;jettySize=auto;html=1;exitX=1;exitY=0.25;exitDx=0;exitDy=0;entryX=0.25;entryY=1;entryDx=0;entryDy=0;startArrow=ERoneToMany;startFill=0;endArrow=ERmandOne;endFill=0;" parent="1" source="ZchKuzCcnekr-gHOlTx0-6" target="VOUzY9_dRoBkDUYtGek2-14" edge="1">
          <mxGeometry relative="1" as="geometry" />
        </mxCell>
        <mxCell id="ZchKuzCcnekr-gHOlTx0-9" value="StaffTask" style="swimlane;childLayout=stackLayout;horizontal=1;startSize=50;horizontalStack=0;rounded=1;fontSize=14;fontStyle=0;strokeWidth=2;resizeParent=0;resizeLast=1;shadow=0;dashed=0;align=center;arcSize=4;whiteSpace=wrap;html=1;fillColor=#bac8d3;strokeColor=#23445d;" parent="1" vertex="1">
          <mxGeometry x="980" y="530" width="140" height="110" as="geometry" />
        </mxCell>
        <mxCell id="ZchKuzCcnekr-gHOlTx0-10" value="+Attribute1&#xa;+Attribute2&#xa;+Attribute3" style="align=left;strokeColor=none;fillColor=none;spacingLeft=4;fontSize=12;verticalAlign=top;resizable=0;rotatable=0;part=1;html=1;" parent="ZchKuzCcnekr-gHOlTx0-9" vertex="1">
          <mxGeometry y="50" width="140" height="60" as="geometry" />
        </mxCell>
        <mxCell id="ZchKuzCcnekr-gHOlTx0-11" style="edgeStyle=orthogonalEdgeStyle;rounded=0;orthogonalLoop=1;jettySize=auto;html=1;exitX=1;exitY=0.5;exitDx=0;exitDy=0;entryX=0;entryY=0.5;entryDx=0;entryDy=0;startArrow=ERmandOne;startFill=0;endArrow=ERoneToMany;endFill=0;" parent="1" source="VOUzY9_dRoBkDUYtGek2-14" target="ZchKuzCcnekr-gHOlTx0-10" edge="1">
          <mxGeometry relative="1" as="geometry" />
        </mxCell>
        <mxCell id="ZchKuzCcnekr-gHOlTx0-12" style="edgeStyle=orthogonalEdgeStyle;rounded=0;orthogonalLoop=1;jettySize=auto;html=1;exitX=1;exitY=0.5;exitDx=0;exitDy=0;entryX=0;entryY=0.5;entryDx=0;entryDy=0;startArrow=ERoneToMany;startFill=0;endArrow=ERmandOne;endFill=0;" parent="1" source="ZchKuzCcnekr-gHOlTx0-10" target="VOUzY9_dRoBkDUYtGek2-6" edge="1">
          <mxGeometry relative="1" as="geometry" />
        </mxCell>
        <mxCell id="ZchKuzCcnekr-gHOlTx0-13" value="ClientVendor" style="swimlane;childLayout=stackLayout;horizontal=1;startSize=50;horizontalStack=0;rounded=1;fontSize=14;fontStyle=0;strokeWidth=2;resizeParent=0;resizeLast=1;shadow=0;dashed=0;align=center;arcSize=4;whiteSpace=wrap;html=1;fillColor=#b0e3e6;strokeColor=#0e8088;" parent="1" vertex="1">
          <mxGeometry x="480" y="-40" width="160" height="120" as="geometry" />
        </mxCell>
        <mxCell id="ZchKuzCcnekr-gHOlTx0-14" value="+Attribute1&#xa;+Attribute2&#xa;+Attribute3" style="align=left;strokeColor=none;fillColor=none;spacingLeft=4;fontSize=12;verticalAlign=top;resizable=0;rotatable=0;part=1;html=1;" parent="ZchKuzCcnekr-gHOlTx0-13" vertex="1">
          <mxGeometry y="50" width="160" height="70" as="geometry" />
        </mxCell>
        <mxCell id="ZchKuzCcnekr-gHOlTx0-16" style="edgeStyle=orthogonalEdgeStyle;rounded=0;orthogonalLoop=1;jettySize=auto;html=1;exitX=0.75;exitY=1;exitDx=0;exitDy=0;entryX=0.25;entryY=0;entryDx=0;entryDy=0;startArrow=ERoneToMany;startFill=0;endArrow=ERmandOne;endFill=0;" parent="1" source="ZchKuzCcnekr-gHOlTx0-14" target="VOUzY9_dRoBkDUYtGek2-7" edge="1">
          <mxGeometry relative="1" as="geometry" />
        </mxCell>
        <mxCell id="ZchKuzCcnekr-gHOlTx0-17" style="edgeStyle=orthogonalEdgeStyle;rounded=0;orthogonalLoop=1;jettySize=auto;html=1;exitX=0.5;exitY=1;exitDx=0;exitDy=0;entryX=0.75;entryY=0;entryDx=0;entryDy=0;startArrow=ERmandOne;startFill=0;endArrow=ERoneToMany;endFill=0;" parent="1" source="VOUzY9_dRoBkDUYtGek2-12" target="ZchKuzCcnekr-gHOlTx0-13" edge="1">
          <mxGeometry relative="1" as="geometry" />
        </mxCell>
        <mxCell id="ZchKuzCcnekr-gHOlTx0-22" style="edgeStyle=orthogonalEdgeStyle;rounded=0;orthogonalLoop=1;jettySize=auto;html=1;exitX=1;exitY=0.25;exitDx=0;exitDy=0;entryX=0.5;entryY=1;entryDx=0;entryDy=0;startArrow=ERoneToMany;startFill=0;endArrow=ERmandOne;endFill=0;" parent="1" source="VOUzY9_dRoBkDUYtGek2-8" target="VOUzY9_dRoBkDUYtGek2-18" edge="1">
          <mxGeometry relative="1" as="geometry" />
        </mxCell>
        <mxCell id="ZchKuzCcnekr-gHOlTx0-23" value="holds/help by" style="edgeLabel;html=1;align=center;verticalAlign=middle;resizable=0;points=[];" parent="ZchKuzCcnekr-gHOlTx0-22" vertex="1" connectable="0">
          <mxGeometry x="-0.1254" relative="1" as="geometry">
            <mxPoint as="offset" />
          </mxGeometry>
        </mxCell>
      </root>
    </mxGraphModel>
  </diagram>
</mxfile>
